# xmcd
#
# Track frame offsets:
#	150
#	22472
#	37255
#	53110
#	68075
#	82007
#	98430
#	112535
#	123647
#	139212
#
# Disc length: 2129 seconds
#
# Revision: 0
# Processed by: cddbd v1.5.2PL0 Copyright (c) Steve Scherf et al.
# Submitted via: EasyCDDAExtractor 2010.4.0.0
#
DISCID=89084f0a
DTITLE=Piyo - No Cover
DYEAR=1900
DGENRE=
TTITLE0=El Derramo Su Amor Por Ti
TTITLE1=Juego De Dados
TTITLE2=Del 88
TTITLE3=Linea Y 6
TTITLE4=Vivir En Polaroid
TTITLE5=Cielo De Ti
TTITLE6=Mikky
TTITLE7=Switch De Amor
TTITLE8=No Podras
TTITLE9=Si Supieras
EXTD=
EXTT0=
EXTT1=
EXTT2=
EXTT3=
EXTT4=
EXTT5=
EXTT6=
EXTT7=
EXTT8=
EXTT9=
PLAYORDER=
